<svg width="57" height="58" viewBox="0 0 57 58" fill="none" xmlns="http://www.w3.org/2000/svg">
<path d="M18.8203 20.5606H37.7295C37.9301 20.5606 38.1224 20.4809 38.2643 20.339C38.4061 20.1972 38.4858 20.0048 38.4858 19.8042C38.4858 19.6036 38.4061 19.4112 38.2643 19.2694C38.1224 19.1275 37.9301 19.0479 37.7295 19.0479H18.8203C18.6197 19.0479 18.4273 19.1275 18.2855 19.2694C18.1437 19.4112 18.064 19.6036 18.064 19.8042C18.064 20.0048 18.1437 20.1972 18.2855 20.339C18.4273 20.4809 18.6197 20.5606 18.8203 20.5606V20.5606Z" fill="white"/>
<path d="M11.183 19.664L9.50244 21.2707L8.82083 20.5891C8.75095 20.5173 8.6675 20.4601 8.57533 20.4208C8.48316 20.3815 8.3841 20.3609 8.28391 20.3603C8.18372 20.3596 8.0844 20.3788 7.99171 20.4169C7.89902 20.4549 7.81481 20.511 7.74396 20.5818C7.67312 20.6527 7.61706 20.7369 7.57904 20.8296C7.54102 20.9223 7.52179 21.0216 7.52248 21.1218C7.52316 21.222 7.54375 21.321 7.58304 21.4132C7.62232 21.5054 7.67953 21.5888 7.75133 21.6587L8.95584 22.8633C9.09561 23.0031 9.28454 23.0826 9.48219 23.0848C9.67984 23.087 9.8705 23.0118 10.0134 22.8752L12.2284 20.7573C12.3009 20.6889 12.3591 20.6067 12.3997 20.5157C12.4403 20.4246 12.4626 20.3264 12.4651 20.2267C12.4676 20.1271 12.4504 20.0279 12.4145 19.9349C12.3785 19.8419 12.3245 19.7569 12.2556 19.6848C12.1867 19.6127 12.1042 19.555 12.0129 19.5149C11.9216 19.4749 11.8233 19.4532 11.7236 19.4513C11.6239 19.4494 11.5248 19.4672 11.4321 19.5037C11.3393 19.5402 11.2546 19.5947 11.183 19.664V19.664Z" fill="white"/>
<path d="M9.99624 16.1357C8.98094 16.1357 7.98843 16.4368 7.14424 17.0009C6.30004 17.565 5.64208 18.3667 5.25354 19.3047C4.86501 20.2428 4.76336 21.2749 4.96144 22.2707C5.15953 23.2665 5.64845 24.1812 6.36639 24.8991C7.08433 25.617 7.99903 26.106 8.99483 26.304C9.99063 26.5021 11.0228 26.4004 11.9608 26.0118C12.8988 25.6233 13.7006 24.9653 14.2646 24.1211C14.8287 23.2769 15.1297 22.2844 15.1297 21.2691C15.1282 19.9081 14.5868 18.6033 13.6244 17.6409C12.6621 16.6786 11.3572 16.1372 9.99624 16.1357V16.1357ZM9.99624 24.8898C9.28013 24.8898 8.5801 24.6774 7.98468 24.2796C7.38926 23.8817 6.92518 23.3162 6.65113 22.6546C6.37709 21.9931 6.30539 21.265 6.4451 20.5627C6.5848 19.8603 6.92964 19.2152 7.43601 18.7088C7.94237 18.2025 8.58752 17.8576 9.28988 17.7179C9.99223 17.5782 10.7202 17.6499 11.3818 17.924C12.0434 18.198 12.6089 18.6621 13.0068 19.2575C13.4046 19.8529 13.617 20.553 13.617 21.2691C13.616 22.2291 13.2343 23.1495 12.5555 23.8284C11.8767 24.5073 10.9563 24.8892 9.99624 24.8903V24.8898Z" fill="white"/>
<path d="M18.8203 33.166H37.7295C37.9301 33.166 38.1224 33.0864 38.2643 32.9445C38.4061 32.8027 38.4858 32.6103 38.4858 32.4097C38.4858 32.2091 38.4061 32.0167 38.2643 31.8749C38.1224 31.733 37.9301 31.6533 37.7295 31.6533H18.8203C18.6197 31.6533 18.4273 31.733 18.2855 31.8749C18.1437 32.0167 18.064 32.2091 18.064 32.4097C18.064 32.6103 18.1437 32.8027 18.2855 32.9445C18.4273 33.0864 18.6197 33.166 18.8203 33.166V33.166Z" fill="white"/>
<path d="M11.183 32.2695L9.50244 33.8761L8.82083 33.1945C8.75095 33.1227 8.6675 33.0655 8.57533 33.0263C8.48316 32.987 8.3841 32.9664 8.28391 32.9657C8.18372 32.9651 8.0844 32.9843 7.99171 33.0223C7.89902 33.0604 7.81481 33.1164 7.74396 33.1873C7.67312 33.2581 7.61706 33.3423 7.57904 33.435C7.54102 33.5277 7.52179 33.6271 7.52248 33.7273C7.52316 33.8274 7.54375 33.9265 7.58304 34.0187C7.62232 34.1108 7.67953 34.1943 7.75133 34.2642L8.95584 35.4688C9.09561 35.6086 9.28454 35.688 9.48219 35.6903C9.67984 35.6925 9.8705 35.6172 10.0134 35.4806L12.2284 33.3628C12.3009 33.2943 12.3591 33.2122 12.3997 33.1212C12.4403 33.0301 12.4626 32.9319 12.4651 32.8322C12.4676 32.7325 12.4504 32.6333 12.4145 32.5403C12.3785 32.4473 12.3245 32.3624 12.2556 32.2903C12.1867 32.2182 12.1042 32.1605 12.0129 32.1204C11.9216 32.0803 11.8233 32.0587 11.7236 32.0568C11.6239 32.0549 11.5248 32.0726 11.4321 32.1092C11.3393 32.1457 11.2546 32.2001 11.183 32.2695V32.2695Z" fill="white"/>
<path d="M9.99624 28.7412C8.98094 28.7412 7.98843 29.0423 7.14424 29.6064C6.30004 30.1704 5.64208 30.9722 5.25354 31.9102C4.86501 32.8482 4.76336 33.8804 4.96144 34.8762C5.15953 35.872 5.64845 36.7867 6.36639 37.5046C7.08433 38.2225 7.99903 38.7114 8.99483 38.9095C9.99063 39.1075 11.0228 39.0059 11.9608 38.6173C12.8988 38.2288 13.7006 37.5708 14.2646 36.7266C14.8287 35.8824 15.1297 34.8898 15.1297 33.8745C15.1282 32.5135 14.5868 31.2087 13.6244 30.2464C12.6621 29.284 11.3572 28.7427 9.99624 28.7412V28.7412ZM9.99624 37.4952C9.28013 37.4952 8.5801 37.2829 7.98468 36.885C7.38926 36.4872 6.92518 35.9217 6.65113 35.2601C6.37709 34.5985 6.30539 33.8705 6.4451 33.1682C6.5848 32.4658 6.92964 31.8207 7.43601 31.3143C7.94237 30.8079 8.58752 30.4631 9.28988 30.3234C9.99223 30.1837 10.7202 30.2554 11.3818 30.5294C12.0434 30.8035 12.6089 31.2675 13.0068 31.863C13.4046 32.4584 13.617 33.1584 13.617 33.8745C13.616 34.8346 13.2343 35.755 12.5555 36.4339C11.8767 37.1128 10.9563 37.4947 9.99624 37.4958V37.4952Z" fill="white"/>
<path d="M11.183 44.8759L9.50244 46.4826L8.82083 45.801C8.75095 45.7292 8.6675 45.672 8.57533 45.6327C8.48316 45.5934 8.3841 45.5729 8.28391 45.5722C8.18372 45.5715 8.0844 45.5907 7.99171 45.6288C7.89902 45.6668 7.81481 45.7229 7.74396 45.7937C7.67312 45.8646 7.61706 45.9488 7.57904 46.0415C7.54102 46.1342 7.52179 46.2335 7.52248 46.3337C7.52316 46.4339 7.54375 46.5329 7.58304 46.6251C7.62232 46.7173 7.67953 46.8007 7.75133 46.8706L8.95584 48.0752C9.09561 48.215 9.28454 48.2945 9.48219 48.2967C9.67984 48.2989 9.8705 48.2237 10.0134 48.0871L12.2284 45.9693C12.3009 45.9008 12.3591 45.8187 12.3997 45.7276C12.4403 45.6365 12.4626 45.5383 12.4651 45.4387C12.4676 45.339 12.4504 45.2398 12.4145 45.1468C12.3785 45.0538 12.3245 44.9688 12.2556 44.8967C12.1867 44.8247 12.1042 44.7669 12.0129 44.7269C11.9216 44.6868 11.8233 44.6652 11.7236 44.6632C11.6239 44.6613 11.5248 44.6791 11.4321 44.7156C11.3393 44.7521 11.2546 44.8066 11.183 44.8759V44.8759Z" fill="white"/>
<path d="M9.99624 41.3477C8.98094 41.3477 7.98843 41.6487 7.14424 42.2128C6.30004 42.7769 5.64208 43.5786 5.25354 44.5166C4.86501 45.4547 4.76336 46.4868 4.96144 47.4826C5.15953 48.4784 5.64845 49.3931 6.36639 50.111C7.08433 50.829 7.99903 51.3179 8.99483 51.5159C9.99063 51.714 11.0228 51.6123 11.9608 51.2238C12.8988 50.8352 13.7006 50.1772 14.2646 49.333C14.8287 48.4888 15.1297 47.4963 15.1297 46.481C15.1282 45.12 14.5868 43.8152 13.6244 42.8528C12.6621 41.8905 11.3572 41.3492 9.99624 41.3477V41.3477ZM9.99624 50.1017C9.28013 50.1017 8.5801 49.8893 7.98468 49.4915C7.38926 49.0936 6.92518 48.5282 6.65113 47.8666C6.37709 47.205 6.30539 46.477 6.4451 45.7746C6.5848 45.0723 6.92964 44.4271 7.43601 43.9207C7.94237 43.4144 8.58752 43.0695 9.28988 42.9298C9.99223 42.7901 10.7202 42.8618 11.3818 43.1359C12.0434 43.4099 12.6089 43.874 13.0068 44.4694C13.4046 45.0648 13.617 45.7649 13.617 46.481C13.616 47.441 13.2343 48.3615 12.5555 49.0404C11.8767 49.7193 10.9563 50.1011 9.99624 50.1022V50.1017Z" fill="white"/>
<path d="M18.8203 23.0811H28.9052C29.1058 23.0811 29.2982 23.0014 29.44 22.8596C29.5819 22.7177 29.6616 22.5253 29.6616 22.3247C29.6616 22.1241 29.5819 21.9317 29.44 21.7899C29.2982 21.648 29.1058 21.5684 28.9052 21.5684H18.8203C18.6197 21.5684 18.4273 21.648 18.2855 21.7899C18.1437 21.9317 18.064 22.1241 18.064 22.3247C18.064 22.5253 18.1437 22.7177 18.2855 22.8596C18.4273 23.0014 18.6197 23.0811 18.8203 23.0811V23.0811Z" fill="white"/>
<path d="M18.9741 35.6875H29.059C29.2596 35.6875 29.452 35.6078 29.5938 35.466C29.7357 35.3242 29.8154 35.1318 29.8154 34.9312C29.8154 34.7306 29.7357 34.5382 29.5938 34.3963C29.452 34.2545 29.2596 34.1748 29.059 34.1748H18.9741C18.7735 34.1748 18.5812 34.2545 18.4393 34.3963C18.2975 34.5382 18.2178 34.7306 18.2178 34.9312C18.2178 35.1318 18.2975 35.3242 18.4393 35.466C18.5812 35.6078 18.7735 35.6875 18.9741 35.6875V35.6875Z" fill="white"/>
<path d="M53.8621 30.2956C53.3561 30.1894 52.834 30.1847 52.3262 30.2816C51.8183 30.3785 51.3347 30.5752 50.9033 30.8603L43.1128 35.9766V7.59516C43.1128 5.09285 41.0564 3.10425 38.5539 3.10425H33.7843V0.756365C33.7843 0.555764 33.7046 0.36338 33.5628 0.221534C33.4209 0.0796881 33.2285 0 33.0279 0C32.8273 0 32.6349 0.0796881 32.4931 0.221534C32.3512 0.36338 32.2716 0.555764 32.2716 0.756365V3.10425H25.8425V0.756365C25.8425 0.555764 25.7628 0.36338 25.6209 0.221534C25.4791 0.0796881 25.2867 0 25.0861 0C24.8855 0 24.6931 0.0796881 24.5513 0.221534C24.4094 0.36338 24.3297 0.555764 24.3297 0.756365V3.10425H18.0267V0.756365C18.0267 0.555764 17.947 0.36338 17.8052 0.221534C17.6633 0.0796881 17.4709 0 17.2703 0C17.0697 0 16.8773 0.0796881 16.7355 0.221534C16.5937 0.36338 16.514 0.555764 16.514 0.756365V3.10425H10.0849V0.756365C10.0849 0.555764 10.0052 0.36338 9.86333 0.221534C9.72149 0.0796881 9.5291 0 9.3285 0C9.1279 0 8.93552 0.0796881 8.79367 0.221534C8.65182 0.36338 8.57214 0.555764 8.57214 0.756365V3.10425H4.51752C3.92533 3.10002 3.33816 3.2131 2.7899 3.43696C2.24164 3.66082 1.74314 3.99104 1.32315 4.40855C0.903164 4.82606 0.570011 5.32261 0.342914 5.86954C0.115818 6.41647 -0.000727341 7.00296 3.41526e-06 7.59516V53.1031C3.41526e-06 55.6055 2.01508 57.6886 4.51752 57.6886H38.5539C41.0564 57.6886 43.1128 55.6055 43.1128 53.1031V45.3926L55.2255 37.4382C55.876 37.0108 56.3852 36.4001 56.6886 35.6833C56.9921 34.9666 57.0761 34.1759 56.9302 33.4113C56.7843 32.6468 56.4149 31.9427 55.8688 31.3881C55.3227 30.8335 54.6243 30.4533 53.8621 30.2956ZM32.9852 7.84085C33.2497 7.84085 33.5083 7.9193 33.7283 8.06626C33.9482 8.21323 34.1196 8.42212 34.2209 8.66652C34.3221 8.91091 34.3486 9.17984 34.297 9.43929C34.2454 9.69874 34.118 9.93706 33.9309 10.1241C33.7439 10.3112 33.5056 10.4386 33.2461 10.4902C32.9867 10.5418 32.7177 10.5153 32.4734 10.4141C32.229 10.3128 32.0201 10.1414 31.8731 9.92144C31.7261 9.70148 31.6477 9.44289 31.6477 9.17836C31.6481 8.82374 31.7891 8.48376 32.0398 8.233C32.2906 7.98225 32.6306 7.84122 32.9852 7.84085ZM25.1035 7.84085C25.368 7.84088 25.6266 7.91934 25.8465 8.06632C26.0665 8.21331 26.2379 8.4222 26.3391 8.6666C26.4403 8.911 26.4668 9.17993 26.4152 9.43937C26.3635 9.69881 26.2361 9.93712 26.0491 10.1242C25.862 10.3112 25.6237 10.4386 25.3643 10.4902C25.1048 10.5418 24.8359 10.5153 24.5915 10.414C24.3471 10.3128 24.1382 10.1414 23.9913 9.92142C23.8443 9.70147 23.7659 9.44289 23.7659 9.17836C23.7663 8.82373 23.9073 8.48374 24.1581 8.233C24.4089 7.98225 24.7489 7.84122 25.1035 7.84085ZM17.2215 7.84085C17.4861 7.84093 17.7446 7.91943 17.9645 8.06645C18.1844 8.21346 18.3558 8.42238 18.457 8.66678C18.5581 8.91118 18.5846 9.1801 18.5329 9.43952C18.4813 9.69895 18.3539 9.93723 18.1668 10.1242C17.9797 10.3113 17.7414 10.4386 17.482 10.4902C17.2225 10.5418 16.9536 10.5153 16.7092 10.414C16.4649 10.3128 16.256 10.1413 16.109 9.9214C15.9621 9.70145 15.8837 9.44287 15.8837 9.17836C15.8841 8.82369 16.0252 8.48366 16.276 8.23291C16.5268 7.98215 16.8669 7.84115 17.2215 7.84085ZM9.33985 7.84085C9.60437 7.84088 9.86296 7.91934 10.0829 8.06632C10.3028 8.21331 10.4742 8.4222 10.5754 8.6666C10.6767 8.911 10.7031 9.17993 10.6515 9.43937C10.5999 9.69881 10.4725 9.93712 10.2854 10.1242C10.0984 10.3112 9.86005 10.4386 9.60061 10.4902C9.34116 10.5418 9.07224 10.5153 8.82785 10.414C8.58346 10.3128 8.37458 10.1414 8.22762 9.92142C8.08066 9.70147 8.00221 9.44289 8.00221 9.17836C8.00261 8.82373 8.14368 8.48374 8.39445 8.233C8.64522 7.98225 8.98522 7.84122 9.33985 7.84085ZM41.6001 53.1031C41.5963 53.9123 41.275 54.6877 40.7053 55.2623C40.1356 55.837 39.3631 56.165 38.5539 56.1758H4.51752C2.84898 56.1758 1.51273 54.7714 1.51273 53.1031V7.59516C1.51179 7.20155 1.58906 6.81167 1.74006 6.44818C1.89106 6.08468 2.11278 5.75481 2.39234 5.47773C2.67191 5.20064 3.00373 4.98186 3.36856 4.8341C3.73338 4.68634 4.12393 4.61253 4.51752 4.61698H8.57214V6.43074C7.43759 6.76303 6.48394 7.86859 6.48394 9.17886C6.48394 9.55308 6.55765 9.92363 6.70085 10.2694C6.84406 10.6151 7.05396 10.9292 7.31857 11.1938C7.58318 11.4584 7.89732 11.6683 8.24305 11.8116C8.58878 11.9548 8.95933 12.0285 9.33354 12.0285C9.70776 12.0285 10.0783 11.9548 10.424 11.8116C10.7698 11.6683 11.0839 11.4584 11.3485 11.1938C11.6131 10.9292 11.823 10.6151 11.9662 10.2694C12.1094 9.92363 12.1831 9.55308 12.1831 9.17886C12.1921 8.55188 11.9901 7.94007 11.6096 7.44168C11.229 6.9433 10.6921 6.58726 10.0849 6.43074V4.61698H16.514V6.43074C15.9047 6.58633 15.365 6.94151 14.9812 7.43961C14.5973 7.93771 14.3914 8.55003 14.3961 9.17886C14.3961 9.93559 14.6968 10.6613 15.2318 11.1964C15.7669 11.7315 16.4927 12.0321 17.2494 12.0321C18.0061 12.0321 18.7319 11.7315 19.267 11.1964C19.8021 10.6613 20.1027 9.93559 20.1027 9.17886C20.0919 8.56007 19.8851 7.96063 19.5121 7.46681C19.1391 6.97298 18.619 6.61023 18.0267 6.43074V4.61698H24.3297V6.43074C23.1952 6.76303 22.2446 7.86859 22.2446 9.17886C22.2446 9.93446 22.5447 10.6591 23.079 11.1934C23.6133 11.7277 24.3379 12.0278 25.0935 12.0278C25.8491 12.0278 26.5738 11.7277 27.1081 11.1934C27.6423 10.6591 27.9425 9.93446 27.9425 9.17886C27.951 8.55172 27.7487 7.93989 27.3678 7.44155C26.987 6.9432 26.4498 6.58722 25.8425 6.43074V4.61698H32.2716V6.43074C31.6625 6.58635 31.1232 6.94162 30.7397 7.43978C30.3563 7.93795 30.1509 8.55025 30.1564 9.17886C30.1564 9.93549 30.457 10.6611 30.992 11.1962C31.527 11.7312 32.2526 12.0317 33.0093 12.0317C33.7659 12.0317 34.4915 11.7312 35.0266 11.1962C35.5616 10.6611 35.8621 9.93549 35.8621 9.17886C35.8621 7.86909 34.9188 6.76354 33.7843 6.43074V4.61698H38.5539C40.2221 4.61698 41.6001 5.927 41.6001 7.59516V36.97L38.759 38.8357C38.6718 38.893 38.5973 38.9678 38.5404 39.0554C38.4834 39.1429 38.4453 39.2413 38.4282 39.3443C38.4112 39.4473 38.4156 39.5528 38.4414 39.654C38.4671 39.7552 38.5135 39.85 38.5776 39.9324C38.6944 40.0823 38.8634 40.1827 39.0508 40.2137C39.2383 40.2447 39.4306 40.204 39.5894 40.0997L50.8363 32.7139L51.7511 34.1064L32.6961 46.6204L31.7811 45.2278L35.3612 42.8772C35.4442 42.8227 35.5157 42.7523 35.5715 42.6702C35.6274 42.588 35.6665 42.4957 35.6867 42.3984C35.7068 42.3011 35.7076 42.2009 35.689 42.1033C35.6704 42.0057 35.6328 41.9128 35.5783 41.8297C35.5237 41.7467 35.4534 41.6752 35.3712 41.6194C35.2891 41.5635 35.1968 41.5244 35.0995 41.5043C35.0022 41.4841 34.902 41.4833 34.8044 41.5019C34.7068 41.5205 34.6138 41.5581 34.5308 41.6127L30.3218 44.3765C30.3141 44.3817 30.307 44.3881 30.2992 44.3936C30.2801 44.4072 30.2614 44.4208 30.243 44.4362C30.2369 44.4412 30.2316 44.447 30.226 44.4523H20.2437C20.0431 44.4523 19.8508 44.532 19.7089 44.6738C19.5671 44.8157 19.4874 45.0081 19.4874 45.2087C19.4874 45.4093 19.5671 45.6017 19.7089 45.7435C19.8508 45.8853 20.0431 45.965 20.2437 45.965H29.3734L28.8378 46.977C28.8145 46.9749 28.791 46.9735 28.7671 46.9735H21.8053C21.6047 46.9735 21.4123 47.0532 21.2704 47.195C21.1286 47.3369 21.0489 47.5293 21.0489 47.7299C21.0489 47.9305 21.1286 48.1229 21.2704 48.2647C21.4123 48.4066 21.6047 48.4862 21.8053 48.4862H28.0391L27.1646 50.1383C27.1036 50.2535 27.0734 50.3825 27.077 50.5129C27.0806 50.6432 27.1178 50.7704 27.185 50.8821C27.2522 50.9938 27.3472 51.0863 27.4607 51.1505C27.5742 51.2147 27.7023 51.2484 27.8327 51.2485C27.8394 51.2485 27.8461 51.2485 27.8526 51.2485L34.2448 51.081C34.2603 51.081 34.2755 51.0779 34.2909 51.0767C34.3063 51.0754 34.3238 51.0745 34.3402 51.072C34.3603 51.069 34.3797 51.0638 34.3991 51.0594C34.4135 51.056 34.428 51.0536 34.4423 51.0493C34.4754 51.0394 34.5077 51.0272 34.539 51.0129C34.5467 51.0095 34.5539 51.0047 34.5615 51.0003C34.5859 50.9884 34.6097 50.9752 34.6328 50.9607C34.6353 50.9591 34.638 50.9582 34.6402 50.9565L41.6001 46.3861V53.1031ZM32.8465 49.604L29.1067 49.702L30.8037 46.4952L32.8465 49.604ZM34.4418 49.2771L34.3837 49.1889L33.5265 47.8849L52.5815 35.3715L53.4964 36.7639L34.4418 49.2771ZM54.7392 35.8996L52.1227 31.9175C52.4451 31.7819 52.7929 31.7172 53.1424 31.7277C53.492 31.7382 53.8353 31.8237 54.1489 31.9785C54.3306 32.0659 54.4992 32.1783 54.6497 32.3124C54.9046 32.5338 55.1106 32.8059 55.2545 33.1113C55.3984 33.4167 55.477 33.7487 55.4855 34.0863C55.4939 34.4238 55.4319 34.7593 55.3034 35.0715C55.1749 35.3837 54.9828 35.6658 54.7392 35.8996Z" fill="white"/>
<path d="M18.0713 45.229C18.0713 44.7978 18.4208 44.4482 18.8521 44.4482H30.2278L29.3476 46.0098H18.8521C18.4208 46.0098 18.0713 45.6602 18.0713 45.229V45.229Z" fill="white"/>
<path d="M18.0713 47.7452C18.0713 47.314 18.4208 46.9645 18.8521 46.9645H28.8454L28.0179 48.526H18.8521C18.4208 48.526 18.0713 48.1764 18.0713 47.7452V47.7452Z" fill="white"/>
</svg>
