<svg width="42" height="42" viewBox="0 0 42 42" fill="none" xmlns="http://www.w3.org/2000/svg">
<path d="M36.4902 41.5H6.19012C3.29012 41.5 0.890137 39.1 0.890137 36.2V5.3C0.890137 2.4 3.29012 0 6.19012 0H36.4902C39.3902 0 41.7902 2.4 41.7902 5.3V36.2C41.7902 39.1 39.3902 41.5 36.4902 41.5ZM6.19012 1.6C4.09012 1.6 2.39014 3.3 2.39014 5.4V36.3C2.39014 38.4 4.09012 40.1 6.19012 40.1H36.4902C38.5902 40.1 40.2902 38.4 40.2902 36.3V5.3C40.2902 3.2 38.5902 1.5 36.4902 1.5H6.19012V1.6Z" fill="white"/>
<path d="M14.2904 27.0998C13.9904 26.7998 13.9904 26.2998 14.2904 25.9998L19.4904 20.9998L14.1903 15.4998C13.8903 15.1998 13.8903 14.6998 14.1903 14.3998C14.4903 14.0998 14.9904 14.0998 15.2904 14.3998L20.9904 20.1998C21.3904 20.5998 21.3904 21.1998 20.9904 21.5998L15.3903 26.9998C15.0903 27.3998 14.5904 27.3998 14.2904 27.0998Z" fill="white"/>
<path d="M21.7904 27.0998C21.4904 26.7998 21.4904 26.2998 21.7904 25.9998L26.9904 20.9998L21.6903 15.4998C21.3903 15.1998 21.3903 14.6998 21.6903 14.3998C21.9903 14.0998 22.4904 14.0998 22.7904 14.3998L28.4904 20.1998C28.8904 20.5998 28.8904 21.1998 28.4904 21.5998L22.8903 26.9998C22.5903 27.3998 22.0904 27.3998 21.7904 27.0998Z" fill="white"/>
</svg>
