<svg width="73" height="25" viewBox="0 0 73 25" fill="none" xmlns="http://www.w3.org/2000/svg">
<path d="M62.7224 13.0006H10.1224C9.72238 13.0006 9.42236 12.7006 9.42236 12.3006C9.42236 11.9006 9.72238 11.6006 10.1224 11.6006H62.7224C63.1224 11.6006 63.4223 11.9006 63.4223 12.3006C63.4223 12.6006 63.1224 13.0006 62.7224 13.0006Z" fill="white"/>
<path d="M34.1223 8.00059H10.0223C9.62228 8.00059 9.32227 7.70058 9.32227 7.30058C9.32227 6.90058 9.62228 6.60059 10.0223 6.60059H34.1223C34.5223 6.60059 34.8223 6.90058 34.8223 7.30058C34.8223 7.70058 34.5223 8.00059 34.1223 8.00059Z" fill="white"/>
<path d="M62.7224 8.00059H38.6224C38.2224 8.00059 37.9224 7.70058 37.9224 7.30058C37.9224 6.90058 38.2224 6.60059 38.6224 6.60059H62.7224C63.1224 6.60059 63.4223 6.90058 63.4223 7.30058C63.4223 7.70058 63.1224 8.00059 62.7224 8.00059Z" fill="white"/>
<path d="M50.3224 17.901H26.2225C25.8225 17.901 25.5225 17.601 25.5225 17.201C25.5225 16.801 25.8225 16.501 26.2225 16.501H50.3224C50.7224 16.501 51.0225 16.801 51.0225 17.201C51.0225 17.601 50.7224 17.901 50.3224 17.901Z" fill="white"/>
<path d="M60.2223 24.4H12.5223C5.82228 24.4 0.322266 18.9 0.322266 12.2C0.322266 5.5 5.82228 0 12.5223 0H60.2223C66.9223 0 72.4222 5.5 72.4222 12.2C72.4222 18.9 66.9223 24.4 60.2223 24.4ZM12.5223 1.6C6.62228 1.6 1.82227 6.4 1.82227 12.3C1.82227 18.2 6.62228 23 12.5223 23H60.2223C66.1223 23 70.9222 18.2 70.9222 12.3C70.9222 6.4 66.1223 1.6 60.2223 1.6H12.5223Z" fill="white"/>
</svg>
