<svg width="52" height="53" viewBox="0 0 52 53" fill="none" xmlns="http://www.w3.org/2000/svg">
<path d="M3.13135 19.9418C3.13135 19.5457 3.45243 19.2246 3.84851 19.2246V19.2246C4.24459 19.2246 4.56567 19.5457 4.56567 19.9418V19.9418C4.56567 20.3378 4.24459 20.6589 3.84851 20.6589V20.6589C3.45243 20.6589 3.13135 20.3378 3.13135 19.9418V19.9418Z" fill="white"/>
<path d="M6.00049 19.9418C6.00049 19.5457 6.32184 19.2246 6.71792 19.2246V19.2246C7.114 19.2246 7.43535 19.5457 7.43535 19.9418V19.9418C7.43535 20.3378 7.114 20.6589 6.71792 20.6589V20.6589C6.32184 20.6589 6.00049 20.3378 6.00049 19.9418V19.9418Z" fill="white"/>
<path d="M8.86914 19.9418C8.86914 19.5457 9.1904 19.2246 9.58648 19.2246V19.2246C9.98256 19.2246 10.3038 19.5457 10.3038 19.9418V19.9418C10.3038 20.3378 9.98256 20.6589 9.58648 20.6589V20.6589C9.1904 20.6589 8.86914 20.3378 8.86914 19.9418V19.9418Z" fill="white"/>
<path d="M10.9613 15.9262C10.9613 15.5851 10.6848 15.3086 10.3437 15.3086H4.14961C1.87907 15.3086 0 17.1877 0 19.4582V48.349C0 50.6195 1.87907 52.4986 4.14961 52.4986H31.7877C34.0582 52.4986 35.9373 50.6195 35.9373 48.349V42.516C35.9373 42.1917 35.6744 41.9288 35.3501 41.9288V41.9288C35.0258 41.9288 34.7629 42.1917 34.7629 42.516V48.4272C34.7629 50.0715 33.4319 51.4024 31.7877 51.4024H4.14961C2.50542 51.4024 1.17442 50.0715 1.17442 48.4272V19.5365C1.17442 17.8923 2.50542 16.5613 4.14961 16.5613L10.3454 16.5438C10.6858 16.5428 10.9613 16.2666 10.9613 15.9262V15.9262Z" fill="white"/>
<path fill-rule="evenodd" clip-rule="evenodd" d="M10.9608 22.3555H3.71856C3.39425 22.3555 3.13135 22.6184 3.13135 22.9427C3.13135 23.267 3.39425 23.5299 3.71856 23.5299H10.9608V22.3555Z" fill="white"/>
<path d="M19.1337 27.0527C18.8094 27.0527 18.5465 27.3156 18.5465 27.6399C18.5465 27.9643 18.8094 28.2272 19.1337 28.2272H24.2823L10.3538 41.9198C10.1221 42.1476 10.1194 42.5201 10.3476 42.7512C10.5751 42.9816 10.9462 42.9843 11.1771 42.7573L25.1987 28.9731L24.1309 34.1732C24.0736 34.4997 24.2861 34.8099 24.6055 34.866C24.9249 34.9221 25.2303 34.7029 25.2877 34.3763L26.7674 27.0527H19.1337Z" fill="white"/>
<path d="M48.0734 7.7115V35.1177C48.0734 36.7619 46.7424 38.0929 45.0982 38.0929H23.254C22.9513 38.0929 22.7059 38.3383 22.7059 38.6409C22.7059 38.9436 22.9513 39.189 23.254 39.189H45.0982C47.3688 39.189 49.2478 37.3099 49.2478 35.0394V7.35984C49.1687 7.41006 49.0862 7.45689 49 7.5C48.7474 7.62628 48.4218 7.68944 48.0734 7.7115Z" fill="white"/>
<path d="M44.0013 1.99902H17.4602C15.1896 1.99902 13.3105 3.87809 13.3105 6.14863V29.5979C13.3105 29.9222 13.5734 30.1851 13.8978 30.1851C14.2221 30.1851 14.485 29.9222 14.485 29.5979V6.22693C14.485 4.58274 15.816 3.25174 17.4602 3.25174L43.8038 3.17711L44 2L44.0013 1.99902Z" fill="white"/>
<path d="M47.2062 0C46.3743 0 45.5611 0.246691 44.8694 0.708878C44.1777 1.17106 43.6385 1.82799 43.3202 2.59658C43.0018 3.36517 42.9185 4.2109 43.0808 5.02683C43.2431 5.84276 43.6437 6.59224 44.232 7.18049C44.8202 7.76874 45.5697 8.16935 46.3856 8.33164C47.2016 8.49394 48.0473 8.41064 48.8159 8.09228C49.5845 7.77393 50.2414 7.2348 50.7036 6.54309C51.1658 5.85138 51.4125 5.03815 51.4125 4.20623C51.4125 3.65386 51.3037 3.1069 51.0923 2.59658C50.8809 2.08625 50.5711 1.62256 50.1805 1.23198C49.7899 0.841392 49.3262 0.531563 48.8159 0.32018C48.3056 0.108797 47.7586 0 47.2062 0ZM47.2062 7.57122C46.5407 7.57122 45.8901 7.37387 45.3367 7.00412C44.7834 6.63437 44.3521 6.10883 44.0974 5.49396C43.8427 4.87909 43.7761 4.2025 43.9059 3.54976C44.0357 2.89701 44.3562 2.29743 44.8268 1.82683C45.2974 1.35623 45.897 1.03574 46.5498 0.905904C47.2025 0.776065 47.8791 0.842703 48.494 1.09739C49.1088 1.35208 49.6344 1.78338 50.0041 2.33675C50.3739 2.89012 50.5712 3.5407 50.5712 4.20623C50.5712 5.09868 50.2167 5.95458 49.5856 6.58564C48.9546 7.21669 48.0987 7.57122 47.2062 7.57122Z" fill="white"/>
<path d="M48.3461 3.06583C48.307 3.0264 48.2605 2.99511 48.2092 2.97376C48.158 2.9524 48.103 2.94141 48.0474 2.94141C47.9919 2.94141 47.9369 2.9524 47.8857 2.97376C47.8344 2.99511 47.7879 3.0264 47.7488 3.06583L47.2062 3.61264L46.6636 3.06583C46.5844 2.98662 46.477 2.94212 46.365 2.94212C46.2529 2.94212 46.1455 2.98662 46.0663 3.06583C45.9871 3.14503 45.9426 3.25246 45.9426 3.36447C45.9426 3.47648 45.9871 3.58391 46.0663 3.66311L46.6131 4.20571L46.0663 4.74832C46.0269 4.78742 45.9956 4.83394 45.9742 4.8852C45.9529 4.93646 45.9419 4.99143 45.9419 5.04696C45.9419 5.10249 45.9529 5.15747 45.9742 5.20872C45.9956 5.25998 46.0269 5.3065 46.0663 5.3456C46.1054 5.38503 46.1519 5.41632 46.2032 5.43767C46.2545 5.45903 46.3094 5.47002 46.365 5.47002C46.4205 5.47002 46.4755 5.45903 46.5267 5.43767C46.578 5.41632 46.6245 5.38503 46.6636 5.3456L47.2062 4.79879L47.7488 5.3456C47.7879 5.38503 47.8344 5.41632 47.8857 5.43767C47.9369 5.45903 47.9919 5.47002 48.0474 5.47002C48.103 5.47002 48.158 5.45903 48.2092 5.43767C48.2605 5.41632 48.307 5.38503 48.3461 5.3456C48.3855 5.3065 48.4168 5.25998 48.4382 5.20872C48.4595 5.15747 48.4705 5.10249 48.4705 5.04696C48.4705 4.99143 48.4595 4.93646 48.4382 4.8852C48.4168 4.83394 48.3855 4.78742 48.3461 4.74832L47.7993 4.20571L48.3461 3.66311C48.3855 3.62401 48.4168 3.57749 48.4382 3.52623C48.4595 3.47497 48.4705 3.42 48.4705 3.36447C48.4705 3.30894 48.4595 3.25396 48.4382 3.20271C48.4168 3.15145 48.3855 3.10493 48.3461 3.06583V3.06583Z" fill="white"/>
</svg>
