<svg width="41" height="42" viewBox="0 0 41 42" fill="none" xmlns="http://www.w3.org/2000/svg">
<path d="M35.6 41.5H5.29999C2.39999 41.5 0 39.1 0 36.2V5.3C0 2.4 2.39999 0 5.29999 0H35.6C38.5 0 40.9 2.4 40.9 5.3V36.2C40.9 39.1 38.5 41.5 35.6 41.5ZM5.29999 1.6C3.19999 1.6 1.5 3.3 1.5 5.4V36.3C1.5 38.4 3.19999 40.1 5.29999 40.1H35.6C37.7 40.1 39.4 38.4 39.4 36.3V5.3C39.4 3.2 37.7 1.5 35.6 1.5H5.29999V1.6Z" fill="white"/>
<path d="M30.3424 26.5781L19.5087 15.7444C19.3527 15.5905 19.1209 15.5428 18.9183 15.6273C18.7157 15.7108 18.5835 15.909 18.5835 16.1279V31.1283C18.5835 31.3352 18.7016 31.5237 18.8879 31.6147C19.0743 31.7057 19.2964 31.683 19.4578 31.5551L22.2084 29.4046L24.6092 33.7251C24.7089 33.9028 24.893 34.0035 25.0837 34.0035C25.165 34.0035 25.2484 33.9851 25.3264 33.9461L28.5765 32.321C28.7087 32.255 28.8084 32.138 28.8517 31.9971C28.8951 31.8552 28.8788 31.7024 28.8084 31.5735L26.5463 27.5033H29.959C30.1778 27.5033 30.375 27.3711 30.4595 27.1685C30.5439 26.9659 30.4974 26.733 30.3424 26.5781ZM25.6265 26.421C25.4347 26.421 25.2571 26.5228 25.1596 26.6886C25.062 26.8533 25.0588 27.058 25.152 27.2259L27.5863 31.606L25.3058 32.7468L22.8498 28.3245C22.7728 28.1858 22.6385 28.0872 22.4836 28.0558C22.4468 28.0482 22.411 28.045 22.3753 28.045C22.2561 28.045 22.1369 28.085 22.0416 28.1598L19.6668 30.0167V17.4355L28.6523 26.421H25.6265Z" fill="white"/>
<path d="M19.1252 8C18.8262 8 18.5835 8.24269 18.5835 8.5417V11.7918C18.5835 12.0908 18.8262 12.3335 19.1252 12.3335C19.4242 12.3335 19.6669 12.0908 19.6669 11.7918V8.5417C19.6669 8.24269 19.4242 8 19.1252 8Z" fill="white"/>
<path d="M14.7918 15.5835H11.5417C11.2427 15.5835 11 15.8262 11 16.1252C11 16.4242 11.2427 16.6669 11.5417 16.6669H14.7918C15.0908 16.6669 15.3335 16.4242 15.3335 16.1252C15.3335 15.8262 15.0908 15.5835 14.7918 15.5835Z" fill="white"/>
<path d="M26.7088 15.5835H23.4587C23.1597 15.5835 22.917 15.8262 22.917 16.1252C22.917 16.4242 23.1597 16.6669 23.4587 16.6669H26.7088C27.0078 16.6669 27.2505 16.4242 27.2505 16.1252C27.2505 15.8262 27.0078 15.5835 26.7088 15.5835Z" fill="white"/>
<path d="M16.444 12.6784L14.1451 10.3806C13.9339 10.1694 13.5904 10.1694 13.3791 10.3806C13.1679 10.5919 13.1679 10.9353 13.3791 11.1466L15.678 13.4444C15.7842 13.5495 15.9229 13.6026 16.0616 13.6026C16.2003 13.6026 16.3389 13.5506 16.444 13.4444C16.6553 13.2332 16.6553 12.8897 16.444 12.6784Z" fill="white"/>
<path d="M16.444 18.8079C16.2328 18.5966 15.8893 18.5966 15.678 18.8079L13.3791 21.1057C13.1679 21.3169 13.1679 21.6604 13.3791 21.8717C13.4853 21.9767 13.624 22.0298 13.7627 22.0298C13.9013 22.0298 14.04 21.9768 14.1451 21.8717L16.444 19.5738C16.6553 19.3626 16.6553 19.0191 16.444 18.8079Z" fill="white"/>
<path d="M24.8718 10.3799C24.6606 10.1676 24.3171 10.1676 24.1048 10.3799L21.8059 12.6778C21.5946 12.889 21.5946 13.2325 21.8059 13.4437C21.9121 13.5488 22.0507 13.6019 22.1894 13.6019C22.3281 13.6019 22.4667 13.5499 22.5729 13.4437L24.8718 11.1459C25.0831 10.9347 25.0831 10.5923 24.8718 10.3799Z" fill="white"/>
</svg>
