<svg width="59" height="46" viewBox="0 0 59 46" fill="none" xmlns="http://www.w3.org/2000/svg">
<path fill-rule="evenodd" clip-rule="evenodd" d="M38.1365 14.7969C38.0429 14.7033 37.8926 14.6988 37.7937 14.7868L25.7031 25.5339C25.0106 26.1495 23.9583 26.1186 23.3031 25.4634L19.5219 21.6822C19.4408 21.6011 19.3149 21.5856 19.2165 21.6446L9.886 27.2429L9.11426 25.9567L18.4447 20.3584C19.1333 19.9452 20.0147 20.0537 20.5826 20.6216L24.3637 24.4027C24.4573 24.4963 24.6077 24.5007 24.7066 24.4128L36.7971 13.6657C37.4897 13.0501 38.542 13.081 39.1972 13.7362L49.5305 24.0695L48.4698 25.1301L38.1365 14.7969Z" fill="white"/>
<path fill-rule="evenodd" clip-rule="evenodd" d="M19.5 13.0996C21.1569 13.0996 22.5 11.7565 22.5 10.0996C22.5 8.44276 21.1569 7.09961 19.5 7.09961C17.8431 7.09961 16.5 8.44276 16.5 10.0996C16.5 11.7565 17.8431 13.0996 19.5 13.0996ZM19.5 14.5996C21.9853 14.5996 24 12.5849 24 10.0996C24 7.61433 21.9853 5.59961 19.5 5.59961C17.0147 5.59961 15 7.61433 15 10.0996C15 12.5849 17.0147 14.5996 19.5 14.5996Z" fill="white"/>
<path d="M44.6 41.5H14.3C11.4 41.5 9 39.1 9 36.2V5.3C9 2.4 11.4 0 14.3 0H44.6C47.5 0 49.9 2.4 49.9 5.3V36.2C49.9 39.1 47.5 41.5 44.6 41.5ZM14.3 1.6C12.2 1.6 10.5 3.3 10.5 5.4V36.3C10.5 38.4 12.2 40.1 14.3 40.1H44.6C46.7 40.1 48.4 38.4 48.4 36.3V5.3C48.4 3.2 46.7 1.5 44.6 1.5L14.3 1.6Z" fill="white"/>
<path d="M7 6H5.2998C2.3999 6 0 8.40039 0 11.2998V31.2002C0 34.0996 2.3999 36.5 5.2998 36.5H7V35.0996H5.2998C3.2002 35.0996 1.5 33.4004 1.5 31.2998V11.4004C1.5 9.2998 3.2002 7.59961 5.2998 7.59961L7 7.59375V6Z" fill="white"/>
<path d="M52 6H53.7002C56.6001 6 59 8.40039 59 11.2998V31.2002C59 34.0996 56.6001 36.5 53.7002 36.5H52V35.0996H53.7002C55.7998 35.0996 57.5 33.4004 57.5 31.2998V11.4004C57.5 9.2998 55.7998 7.59961 53.7002 7.59961L52 7.59375V6Z" fill="white"/>
<circle cx="33.75" cy="44.75" r="0.75" fill="white"/>
<circle cx="24.75" cy="44.75" r="0.75" fill="white"/>
<rect x="27" y="44" width="4.5" height="1.5" rx="0.75" fill="white"/>
</svg>
