<svg width="40" height="48" viewBox="0 0 40 48" fill="none" xmlns="http://www.w3.org/2000/svg">
<path d="M25.8001 14.1914L24.5788 20.5597C24.4915 20.9087 24.7532 21.2576 25.1022 21.3449C25.2767 21.3449 25.2767 21.3449 25.4512 21.3449C25.7129 21.2576 25.8873 21.0832 25.8873 20.8215L27.4576 12.0977C27.5449 11.836 27.4576 11.6615 27.2831 11.487C27.1087 11.3125 26.9342 11.2253 26.6725 11.3125L17.4253 13.2318C17.0763 13.2318 16.8146 13.668 16.9018 14.0169C16.9018 14.3659 17.338 14.6276 17.687 14.5403L24.8405 13.0573C19.3445 20.2108 11.7548 24.6599 6.78225 23.7003C4.60131 23.2641 2.85658 21.9556 2.33315 20.1236C1.89696 18.466 2.42038 16.8085 3.90342 15.5C4.16513 15.2382 4.16511 14.8021 3.99063 14.5403C3.81616 14.2786 3.29275 14.2786 3.03104 14.4531C1.19905 16.1106 0.501156 18.3788 1.02458 20.5597C1.72248 22.8279 3.81618 24.5727 6.52055 25.0961C7.65464 25.2706 9.66111 25.4451 12.191 24.5727C15.5933 23.5258 21.1765 20.1236 25.8001 14.1914Z" fill="white"/>
<path d="M34.9453 44.0885L22.4703 47.578C20.1148 48.0142 17.8467 45.4843 17.8467 42.9544V24.1513C17.8467 23.7899 18.1396 23.497 18.501 23.497V23.497C18.8623 23.497 19.1552 23.7899 19.1552 24.1513V42.9544C19.1552 44.7864 20.8127 46.7056 22.4703 46.2694L34.9453 42.7799C36.8645 42.3437 38.2603 41.2969 38.2603 39.4649V8.14652C38.2603 6.31453 36.7772 5.44215 34.9453 4.83148L22.4703 1.34197C20.6383 0.818546 19.1552 2.82501 19.1552 4.65701V10.8324C19.1552 11.1938 18.8623 11.4867 18.501 11.4867V11.4867C18.1396 11.4867 17.8467 11.1938 17.8467 10.8324V4.65701C17.8467 2.12711 19.9404 -0.315545 22.4703 0.0334065L34.9453 3.52292C37.3879 4.13358 39.5689 5.61662 39.5689 8.14652V39.4649C39.5689 41.9948 37.5624 43.4778 34.9453 44.0885Z" fill="white"/>
<path d="M10.3443 7.85059H15.535C15.8963 7.85059 16.1892 8.14352 16.1892 8.50487V8.50487C16.1892 8.86622 15.8963 9.15915 15.535 9.15915H10.3443C8.51232 9.15915 7.02927 10.6422 7.02927 12.4742V19.8571C7.02927 20.2185 6.73634 20.5114 6.37499 20.5114V20.5114C6.01364 20.5114 5.7207 20.2185 5.7207 19.8571V12.4742C5.7207 9.94429 7.81438 7.85059 10.3443 7.85059Z" fill="white"/>
<path d="M6.37499 27.0429C6.01364 27.0429 5.7207 27.3358 5.7207 27.6972V35.0688C5.7207 37.5987 7.81438 39.6924 10.3443 39.6924H15.535C15.8963 39.6924 16.1892 39.3994 16.1892 39.0381V39.0381C16.1892 38.6767 15.8963 38.3838 15.535 38.3838H10.3443C8.51232 38.3838 7.02927 36.9008 7.02927 35.0688V27.6972C7.02927 27.3358 6.73634 27.0429 6.37499 27.0429V27.0429Z" fill="white"/>
</svg>
