<svg width="46" height="48" viewBox="0 0 46 48" fill="none" xmlns="http://www.w3.org/2000/svg">
<rect x="4" y="9" width="38" height="1.5" fill="white"/>
<path d="M40.6 47.5H5.29999C2.39999 47.5 0 45.1 0 42.2V5.3C0 2.4 2.39999 0 5.29999 0H40.6C43.5 0 45.9 2.4 45.9 5.3V42.2C45.9 45.1 43.5 47.5 40.6 47.5ZM5.29999 1.6C3.19999 1.6 1.5 3.3 1.5 5.4V42.3C1.5 44.4 3.19999 46.1 5.29999 46.1H40.6C42.7 46.1 44.4 44.4 44.4 42.3V5.3C44.4 3.2 42.7 1.5 40.6 1.5L5.29999 1.6Z" fill="white"/>
<path d="M4 5.91598C4 5.4101 4.4101 5 4.91598 5V5C5.42186 5 5.83195 5.4101 5.83195 5.91598V5.91598C5.83195 6.42186 5.42186 6.83195 4.91598 6.83195V6.83195C4.4101 6.83195 4 6.42186 4 5.91598V5.91598Z" fill="white"/>
<path d="M7.66406 5.91598C7.66406 5.4101 8.07451 5 8.58039 5V5C9.08627 5 9.49671 5.4101 9.49671 5.91598V5.91598C9.49671 6.42186 9.08627 6.83195 8.58039 6.83195V6.83195C8.07451 6.83195 7.66406 6.42186 7.66406 5.91598V5.91598Z" fill="white"/>
<path d="M11.3281 5.91598C11.3281 5.4101 11.7384 5 12.2443 5V5C12.7502 5 13.1605 5.4101 13.1605 5.91598V5.91598C13.1605 6.42186 12.7502 6.83195 12.2443 6.83195V6.83195C11.7384 6.83195 11.3281 6.42186 11.3281 5.91598V5.91598Z" fill="white"/>
<path fill-rule="evenodd" clip-rule="evenodd" d="M15 15H6C5.44772 15 5 15.4477 5 16V40C5 40.5523 5.44772 41 6 41H15C15.5523 41 16 40.5523 16 40V16C16 15.4477 15.5523 15 15 15ZM6 14C4.89543 14 4 14.8954 4 16V40C4 41.1046 4.89543 42 6 42H15C16.1046 42 17 41.1046 17 40V16C17 14.8954 16.1046 14 15 14H6Z" fill="white"/>
<path fill-rule="evenodd" clip-rule="evenodd" d="M20 34L20 40C20 40.5523 20.4477 41 21 41L40 41C40.5523 41 41 40.5523 41 40L41 34C41 33.4477 40.5523 33 40 33L21 33C20.4477 33 20 33.4477 20 34ZM19 40C19 41.1046 19.8954 42 21 42L40 42C41.1046 42 42 41.1046 42 40L42 34C42 32.8954 41.1046 32 40 32L21 32C19.8954 32 19 32.8954 19 34L19 40Z" fill="white"/>
<path fill-rule="evenodd" clip-rule="evenodd" d="M30 15H21C20.4477 15 20 15.4477 20 16V28C20 28.5523 20.4477 29 21 29H30C30.5523 29 31 28.5523 31 28V16C31 15.4477 30.5523 15 30 15ZM21 14C19.8954 14 19 14.8954 19 16V28C19 29.1046 19.8954 30 21 30H30C31.1046 30 32 29.1046 32 28V16C32 14.8954 31.1046 14 30 14H21Z" fill="white"/>
<path fill-rule="evenodd" clip-rule="evenodd" d="M40 15H36C35.4477 15 35 15.4477 35 16V28C35 28.5523 35.4477 29 36 29H40C40.5523 29 41 28.5523 41 28V16C41 15.4477 40.5523 15 40 15ZM36 14C34.8954 14 34 14.8954 34 16V28C34 29.1046 34.8954 30 36 30H40C41.1046 30 42 29.1046 42 28V16C42 14.8954 41.1046 14 40 14H36Z" fill="white"/>
</svg>
