<svg width="43" height="45" viewBox="0 0 43 45" fill="none" xmlns="http://www.w3.org/2000/svg">
<path fill-rule="evenodd" clip-rule="evenodd" d="M30.1365 16.7969C30.0429 16.7033 29.8926 16.6988 29.7937 16.7868L17.7031 27.5339C17.0106 28.1495 15.9583 28.1186 15.3031 27.4634L11.5219 23.6822C11.4408 23.6011 11.3149 23.5856 11.2165 23.6446L1.886 29.2429L1.11426 27.9567L10.4447 22.3584C11.1333 21.9452 12.0147 22.0537 12.5826 22.6216L16.3637 26.4027C16.4573 26.4963 16.6077 26.5007 16.7066 26.4128L28.7971 15.6657C29.4897 15.0501 30.542 15.081 31.1972 15.7362L41.5305 26.0695L40.4698 27.1301L30.1365 16.7969Z" fill="white"/>
<path fill-rule="evenodd" clip-rule="evenodd" d="M11.5 15.0996C13.1569 15.0996 14.5 13.7565 14.5 12.0996C14.5 10.4428 13.1569 9.09961 11.5 9.09961C9.84315 9.09961 8.5 10.4428 8.5 12.0996C8.5 13.7565 9.84315 15.0996 11.5 15.0996ZM11.5 16.5996C13.9853 16.5996 16 14.5849 16 12.0996C16 9.61433 13.9853 7.59961 11.5 7.59961C9.01472 7.59961 7 9.61433 7 12.0996C7 14.5849 9.01472 16.5996 11.5 16.5996Z" fill="white"/>
<path d="M36.6 43.5H6.29999C3.39999 43.5 1 41.1 1 38.2V7.3C1 4.4 3.39999 2 6.29999 2H36.6C39.5 2 41.9 4.4 41.9 7.3V38.2C41.9 41.1 39.5 43.5 36.6 43.5ZM6.29999 3.6C4.19999 3.6 2.5 5.3 2.5 7.4V38.3C2.5 40.4 4.19999 42.1 6.29999 42.1H36.6C38.7 42.1 40.4 40.4 40.4 38.3V7.3C40.4 5.2 38.7 3.5 36.6 3.5L6.29999 3.6Z" fill="white"/>
<circle cx="2" cy="36" r="2" fill="white"/>
<circle cx="41" cy="14" r="2" fill="white"/>
<circle cx="28" cy="2" r="2" fill="white"/>
<circle cx="22" cy="43" r="2" fill="white"/>
</svg>
