<svg width="46" height="46" viewBox="0 0 46 46" fill="none" xmlns="http://www.w3.org/2000/svg">
<path d="M35.4581 21.0832H10.5416C4.72838 21.0832 0 16.3529 0 10.5416C0 4.7303 4.72838 0 10.5416 0H35.4581C41.2713 0 45.9997 4.7303 45.9997 10.5416C45.9997 16.3529 41.2713 21.0832 35.4581 21.0832ZM10.5416 1.91665C5.78637 1.91665 1.91665 5.78637 1.91665 10.5416C1.91665 15.2968 5.78637 19.1665 10.5416 19.1665H35.4581C40.2133 19.1665 44.083 15.2968 44.083 10.5416C44.083 5.78637 40.2133 1.91665 35.4581 1.91665H10.5416Z" fill="white"/>
<path d="M35.4581 45.9992H10.5416C4.72838 45.9992 0 41.2689 0 35.4576C0 29.6463 4.72838 24.916 10.5416 24.916H35.4581C41.2713 24.916 45.9997 29.6463 45.9997 35.4576C45.9997 41.2689 41.2713 45.9992 35.4581 45.9992ZM10.5416 26.8327C5.78637 26.8327 1.91665 30.7024 1.91665 35.4576C1.91665 40.2128 5.78637 44.0825 10.5416 44.0825H35.4581C40.2133 44.0825 44.083 40.2128 44.083 35.4576C44.083 30.7024 40.2133 26.8327 35.4581 26.8327H10.5416Z" fill="white"/>
<path d="M10.5416 15.3333C7.90048 15.3333 5.75 13.1847 5.75 10.5416C5.75 7.89857 7.90048 5.75 10.5416 5.75C13.1828 5.75 15.3333 7.89857 15.3333 10.5416C15.3333 13.1847 13.1828 15.3333 10.5416 15.3333ZM10.5416 7.66665C8.95656 7.66665 7.66665 8.95656 7.66665 10.5416C7.66665 12.1267 8.95656 13.4166 10.5416 13.4166C12.1267 13.4166 13.4166 12.1267 13.4166 10.5416C13.4166 8.95656 12.1267 7.66665 10.5416 7.66665Z" fill="white"/>
<path d="M35.4581 40.2493C32.817 40.2493 30.6665 38.1007 30.6665 35.4576C30.6665 32.8146 32.817 30.666 35.4581 30.666C38.0993 30.666 40.2498 32.8146 40.2498 35.4576C40.2498 38.1007 38.0993 40.2493 35.4581 40.2493ZM35.4581 32.5827C33.8731 32.5827 32.5832 33.8726 32.5832 35.4576C32.5832 37.0427 33.8731 38.3326 35.4581 38.3326C37.0432 38.3326 38.3331 37.0427 38.3331 35.4576C38.3331 33.8726 37.0432 32.5827 35.4581 32.5827Z" fill="white"/>
</svg>
