<svg width="45" height="45" viewBox="0 0 45 45" fill="none" xmlns="http://www.w3.org/2000/svg">
<path d="M32.2697 40.2744C32.6547 40.2744 32.9627 40.5824 33.0398 40.9674C33.0398 41.3525 32.7317 41.7375 32.3467 41.7375C31.9617 41.7375 31.6537 41.4295 31.5767 41.0445C31.5767 40.6594 31.8847 40.2744 32.2697 40.2744Z" fill="white"/>
<path d="M40.9709 33.4977C40.9709 33.8827 40.5859 34.2678 40.2009 34.1908C39.8158 34.1908 39.5078 33.8827 39.5078 33.4207C39.5078 33.0357 39.8928 32.6507 40.2779 32.7277C40.6629 32.7277 40.9709 33.1127 40.9709 33.4977Z" fill="white"/>
<path d="M18.0236 43.0454C18.0236 43.4304 17.6386 43.8155 17.2536 43.7385C16.8686 43.7385 16.5605 43.3534 16.5605 42.9684C16.5605 42.5834 16.8686 42.2754 17.3306 42.2754C17.7156 42.3524 18.0236 42.6604 18.0236 43.0454Z" fill="white"/>
<path d="M2.39229 28.7233C2.39229 29.1083 2.08426 29.4163 1.69924 29.4163C1.31422 29.4163 0.929199 29.1083 0.929199 28.6463C0.929199 28.2613 1.31422 27.8763 1.69924 27.9533C2.08426 28.0303 2.39229 28.3383 2.39229 28.7233Z" fill="white"/>
<path d="M31.0373 41.9686C31.0373 42.3536 30.7293 42.6616 30.3443 42.7386C29.9592 42.7386 29.5742 42.4306 29.5742 42.0456C29.5742 41.6606 29.8822 41.2755 30.2672 41.2755C30.6522 41.1985 31.0373 41.5836 31.0373 41.9686Z" fill="white"/>
<path d="M44.2053 23.0249C44.2053 23.4099 43.8972 23.718 43.5122 23.718C43.1272 23.718 42.7422 23.4099 42.7422 23.0249C42.7422 22.6399 43.1272 22.2549 43.5122 22.2549C43.8202 22.2549 44.2053 22.6399 44.2053 23.0249Z" fill="white"/>
<path d="M1.46797 24.4108C1.46797 24.7958 1.15994 25.1038 0.774921 25.1038C0.389902 25.1038 0.00488281 24.7958 0.00488281 24.3338C0.00488281 23.9488 0.312898 23.5638 0.774921 23.6408C1.15994 23.6408 1.46797 24.0258 1.46797 24.4108Z" fill="white"/>
<path d="M13.0957 42.3527C12.7107 42.3527 12.3257 42.0447 12.3257 41.6597C12.3257 41.2747 12.6337 40.9667 13.0187 40.8896C13.4038 40.8896 13.7888 41.1977 13.7888 41.5827C13.7888 41.9677 13.4807 42.3527 13.0957 42.3527Z" fill="white"/>
<path d="M42.8957 29.4928C42.8957 29.8779 42.5877 30.2629 42.1257 30.2629C41.7407 30.2629 41.4326 29.9549 41.4326 29.5698C41.4326 29.1848 41.8176 28.7998 42.2027 28.7998C42.5877 28.7998 42.8957 29.1078 42.8957 29.4928Z" fill="white"/>
<path d="M41.356 32.2648C40.971 32.2648 40.5859 31.8798 40.5859 31.4948C40.5859 31.1098 40.894 30.8018 41.279 30.8018C41.664 30.8018 42.049 31.1098 42.049 31.4948C42.049 31.9568 41.741 32.2648 41.356 32.2648Z" fill="white"/>
<path d="M7.62795 37.1943C8.01297 37.1943 8.32095 37.5023 8.32095 37.8874C8.32095 38.2724 8.01294 38.6574 7.55092 38.6574C7.1659 38.6574 6.85791 38.2724 6.85791 37.9644C6.85791 37.5794 7.16593 37.1943 7.62795 37.1943Z" fill="white"/>
<path d="M36.6587 38.5025C36.6587 38.8875 36.2737 39.1955 35.9657 39.1955C35.5806 39.1955 35.1956 38.8105 35.2726 38.4255C35.2726 38.0404 35.5806 37.7324 35.9657 37.7324C36.3507 37.7324 36.6587 38.1174 36.6587 38.5025Z" fill="white"/>
<path d="M11.8635 40.5817C11.8635 40.9667 11.4785 41.2747 11.0934 41.2747C10.7084 41.2747 10.4004 40.8897 10.4004 40.5047C10.4004 40.1197 10.7854 39.7347 11.1704 39.8117C11.5554 39.8887 11.8635 40.1967 11.8635 40.5817Z" fill="white"/>
<path d="M21.6432 44.3547C21.2582 44.3547 20.9502 43.9697 20.9502 43.5846C20.9502 43.1996 21.3352 42.8916 21.7202 42.8916C22.1053 42.8916 22.4903 43.2766 22.4133 43.6616C22.3363 43.9697 22.0283 44.3547 21.6432 44.3547Z" fill="white"/>
<path d="M38.2759 35.2684C38.2759 34.8834 38.6609 34.4983 39.0459 34.5753C39.4309 34.5753 39.739 34.8834 39.739 35.3454C39.739 35.7304 39.354 36.1154 38.9689 36.0384C38.5839 36.0384 38.2759 35.6534 38.2759 35.2684Z" fill="white"/>
<path d="M26.032 43.9699C25.647 43.9699 25.262 43.6619 25.339 43.1999C25.339 42.8149 25.647 42.5068 26.032 42.5068C26.417 42.5068 26.8021 42.8149 26.7251 43.2769C26.8021 43.5849 26.417 43.9699 26.032 43.9699Z" fill="white"/>
<path d="M20.18 43.4303C20.18 43.8154 19.872 44.2004 19.487 44.2004C19.1019 44.2004 18.7939 43.8924 18.7939 43.5073C18.7939 43.1223 19.1019 42.7373 19.487 42.7373C19.795 42.7373 20.18 43.0453 20.18 43.4303Z" fill="white"/>
<path d="M4.16291 32.7272C4.16291 33.1122 3.85488 33.4973 3.46986 33.4973C3.08484 33.4973 2.77686 33.1892 2.77686 32.8042C2.77686 32.4192 3.08484 32.0342 3.46986 32.0342C3.85488 32.0342 4.16291 32.3422 4.16291 32.7272Z" fill="white"/>
<path d="M24.569 43.5073C24.569 43.8924 24.261 44.2004 23.799 44.2004C23.414 44.2004 23.106 43.8154 23.106 43.4303C23.106 43.0453 23.414 42.7373 23.799 42.7373C24.261 42.8143 24.569 43.1223 24.569 43.5073Z" fill="white"/>
<path d="M2.46926 30.0322C2.85428 30.0322 3.16231 30.4172 3.16231 30.8023C3.16231 31.1873 2.77729 31.5723 2.39227 31.4953C2.00725 31.4953 1.69922 31.1103 1.69922 30.7253C1.77622 30.3402 2.08424 30.0322 2.46926 30.0322Z" fill="white"/>
<path d="M15.0978 43.1994C14.7128 43.1994 14.4048 42.8914 14.4048 42.5064C14.4048 42.1213 14.7128 41.7363 15.0978 41.7363C15.4829 41.7363 15.7908 42.0443 15.7908 42.4294C15.8678 42.8144 15.5599 43.1994 15.0978 43.1994Z" fill="white"/>
<path d="M10.0153 39.3501C10.0153 39.7351 9.70727 40.1202 9.24525 40.0432C8.86023 40.0432 8.55225 39.7351 8.55225 39.3501C8.55225 38.9651 8.86026 38.5801 9.32228 38.5801C9.7073 38.6571 10.0153 38.9651 10.0153 39.3501Z" fill="white"/>
<path d="M6.01125 37.1174C5.62623 37.1174 5.24121 36.8093 5.24121 36.3473C5.24121 35.9623 5.54924 35.6543 5.93426 35.6543C6.31928 35.6543 6.70432 35.9623 6.62732 36.4243C6.78132 36.8094 6.47327 37.0404 6.01125 37.1174Z" fill="white"/>
<path d="M42.819 28.1076C42.434 28.1076 42.126 27.7996 42.126 27.4146C42.126 27.0296 42.434 26.6445 42.819 26.6445C43.204 26.6445 43.512 26.9525 43.512 27.3376C43.589 27.7996 43.204 28.1076 42.819 28.1076Z" fill="white"/>
<path d="M5.39517 34.6521C5.39517 35.0371 5.08719 35.3451 4.70217 35.4221C4.31715 35.4221 3.93213 35.1141 3.93213 34.7291C3.93213 34.3441 4.24014 33.9591 4.70217 33.9591C5.08719 33.8821 5.39517 34.1901 5.39517 34.6521Z" fill="white"/>
<path d="M28.1887 41.9678C28.5737 41.9678 28.8817 42.2758 28.8817 42.6608C28.8817 43.0458 28.5737 43.4308 28.1887 43.4308C27.8036 43.4308 27.4956 43.1228 27.4956 42.6608C27.4956 42.2758 27.8036 41.9678 28.1887 41.9678Z" fill="white"/>
<path d="M43.281 24.4883C43.666 24.4883 43.9741 24.7963 43.9741 25.1813C43.9741 25.5663 43.666 25.9513 43.281 25.9513C42.896 25.9513 42.588 25.6433 42.588 25.2583C42.511 24.7963 42.819 24.4883 43.281 24.4883Z" fill="white"/>
<path d="M1.85323 26.5671C1.85323 26.9521 1.54519 27.2601 1.16017 27.2601C0.775156 27.2601 0.390137 26.9521 0.390137 26.5671C0.390137 26.182 0.698152 25.874 1.16017 25.874C1.54519 25.874 1.85323 26.182 1.85323 26.5671Z" fill="white"/>
<path d="M34.1944 39.1191C34.5794 39.1191 34.8874 39.4272 34.8874 39.8122C34.8874 40.1972 34.5794 40.5052 34.1944 40.5822C33.7323 40.5822 33.4243 40.2742 33.4243 39.8122C33.5013 39.4272 33.7323 39.1191 34.1944 39.1191Z" fill="white"/>
<path d="M38.2756 36.9627C38.2756 37.3477 37.9676 37.6557 37.5056 37.6557C37.1205 37.6557 36.8125 37.3477 36.8125 36.9627C36.8125 36.5777 37.1205 36.1927 37.5825 36.2697C37.9676 36.2697 38.2756 36.5777 38.2756 36.9627Z" fill="white"/>
<path d="M21.8369 37.5008C13.2125 37.5008 6.20508 30.4935 6.20508 21.8691C6.20508 13.2447 13.2125 6.2373 21.8369 6.2373C30.4613 6.2373 37.4686 13.2447 37.4686 21.8691C37.4686 30.4935 30.4613 37.5008 21.8369 37.5008ZM21.8369 7.54637C13.9055 7.54637 7.51415 13.9377 7.51415 21.8691C7.51415 29.8005 13.9055 36.1918 21.8369 36.1918C29.7683 36.1918 36.1596 29.8005 36.1596 21.8691C36.1596 13.9377 29.6913 7.54637 21.8369 7.54637Z" fill="white"/>
<path d="M36.5048 1.69408C36.5048 1.38607 36.1968 1.15506 35.9658 1.23206C35.7348 1.30906 35.4268 1.54008 35.5038 1.77109L35.8118 4.85124C32.0386 1.84809 27.2644 0 22.1051 0C10.1695 0 0.46705 9.31746 0.0820312 21.253C0.0820312 21.6381 0.390037 21.8691 0.698052 21.8691C1.08307 21.8691 1.31407 21.5611 1.31407 21.253C1.62209 10.3955 10.7856 1.23206 22.0281 1.23206C26.9564 1.23206 31.4226 3.00315 34.9647 5.85229L31.7306 6.00629C31.4226 6.00629 31.1915 6.23731 31.1915 6.54532C31.1915 6.85334 31.4226 7.08435 31.7306 7.08435L36.9668 6.85334L36.5048 1.69408Z" fill="white"/>
<path d="M22.33 20.0944V14.3585C22.33 14.1981 22.2641 14.0444 22.1469 13.931C22.0297 13.8176 21.8707 13.7539 21.705 13.7539C21.5392 13.7539 21.3802 13.8176 21.263 13.931C21.1458 14.0444 21.0799 14.1981 21.0799 14.3585V20.0944C20.757 20.1696 20.4533 20.3075 20.1872 20.4998C19.9211 20.6921 19.6983 20.9348 19.5323 21.213C19.3663 21.4913 19.2606 21.7993 19.2216 22.1184C19.1826 22.4374 19.2112 22.7608 19.3056 23.0689L16.5212 24.6238C16.4495 24.6632 16.3866 24.7159 16.3361 24.7789C16.2856 24.842 16.2485 24.914 16.2269 24.9909C16.2053 25.0679 16.1997 25.1482 16.2103 25.2273C16.2209 25.3063 16.2476 25.3826 16.2888 25.4516C16.33 25.5207 16.385 25.5812 16.4504 25.6296C16.5159 25.678 16.5906 25.7134 16.6703 25.7338C16.75 25.7542 16.8331 25.7591 16.9148 25.7483C16.9964 25.7375 17.0751 25.7112 17.1462 25.6709L19.9243 24.1196C20.1935 24.3861 20.5227 24.5887 20.8863 24.7115C21.2499 24.8344 21.6379 24.8742 22.0201 24.8279C22.4022 24.7815 22.7681 24.6502 23.089 24.4443C23.41 24.2383 23.6773 23.9633 23.87 23.6408C24.0628 23.3183 24.1757 22.957 24.2001 22.5852C24.2244 22.2134 24.1595 21.8412 24.0103 21.4977C23.8612 21.1543 23.6319 20.8489 23.3403 20.6054C23.0488 20.362 22.703 20.1871 22.33 20.0944ZM21.705 23.6359C21.4577 23.6359 21.216 23.565 21.0105 23.4322C20.8049 23.2993 20.6447 23.1105 20.5501 22.8895C20.4555 22.6686 20.4307 22.4255 20.479 22.1909C20.5272 21.9564 20.6462 21.741 20.8211 21.5719C20.9959 21.4028 21.2186 21.2876 21.4611 21.2409C21.7036 21.1943 21.9549 21.2182 22.1833 21.3098C22.4117 21.4013 22.6069 21.5562 22.7443 21.7551C22.8817 21.9539 22.955 22.1877 22.955 22.4268C22.955 22.7475 22.8233 23.0551 22.5888 23.2818C22.3544 23.5086 22.0365 23.6359 21.705 23.6359Z" fill="white"/>
<path d="M21.2051 9.40391C21.2051 9.04492 21.4961 8.75391 21.8551 8.75391V8.75391C22.2141 8.75391 22.5051 9.04492 22.5051 9.40391V11.1039C22.5051 11.4629 22.2141 11.7539 21.8551 11.7539V11.7539C21.4961 11.7539 21.2051 11.4629 21.2051 11.1039V9.40391Z" fill="white"/>
<path d="M33.5551 21.7539C33.9141 21.7539 34.2051 22.0449 34.2051 22.4039V22.4039C34.2051 22.7629 33.9141 23.0539 33.5551 23.0539L31.8551 23.0539C31.4961 23.0539 31.2051 22.7629 31.2051 22.4039V22.4039C31.2051 22.0449 31.4961 21.7539 31.8551 21.7539L33.5551 21.7539Z" fill="white"/>
<path d="M21.2051 32.4039C21.2051 32.0449 21.4961 31.7539 21.8551 31.7539V31.7539C22.2141 31.7539 22.5051 32.0449 22.5051 32.4039V34.1039C22.5051 34.4629 22.2141 34.7539 21.8551 34.7539V34.7539C21.4961 34.7539 21.2051 34.4629 21.2051 34.1039V32.4039Z" fill="white"/>
<path d="M11.5551 21.7539C11.9141 21.7539 12.2051 22.0449 12.2051 22.4039V22.4039C12.2051 22.7629 11.9141 23.0539 11.5551 23.0539L9.85508 23.0539C9.49609 23.0539 9.20508 22.7629 9.20508 22.4039V22.4039C9.20508 22.0449 9.49609 21.7539 9.85508 21.7539L11.5551 21.7539Z" fill="white"/>
</svg>
