<svg width="43" height="58" viewBox="0 0 43 58" fill="none" xmlns="http://www.w3.org/2000/svg">
<path fill-rule="evenodd" clip-rule="evenodd" d="M38 1.5H5C3.067 1.5 1.5 3.067 1.5 5V53C1.5 54.933 3.067 56.5 5 56.5H38C39.933 56.5 41.5 54.933 41.5 53V5C41.5 3.067 39.933 1.5 38 1.5ZM5 0C2.23858 0 0 2.23858 0 5V53C0 55.7614 2.23858 58 5 58H38C40.7614 58 43 55.7614 43 53V5C43 2.23858 40.7614 0 38 0H5Z" fill="white"/>
<path d="M12 19.45C12 19.2015 12.2015 19 12.45 19H27.7405C27.989 19 28.1905 19.2015 28.1905 19.45V19.45C28.1905 19.6985 27.989 19.9 27.7405 19.9H12.45C12.2015 19.9 12 19.6985 12 19.45V19.45Z" fill="white"/>
<path d="M7 22.45C7 22.2015 7.20147 22 7.45 22H33.931C34.1795 22 34.381 22.2015 34.381 22.45V22.45C34.381 22.6985 34.1795 22.9 33.931 22.9H7.45C7.20147 22.9 7 22.6985 7 22.45V22.45Z" fill="white"/>
<path d="M4 47.4798C4 47.2148 4.2148 47 4.47976 47H8.90119C9.16616 47 9.38095 47.2148 9.38095 47.4798V47.4798C9.38095 47.7447 9.16616 47.9595 8.90119 47.9595H4.47976C4.2148 47.9595 4 47.7447 4 47.4798V47.4798Z" fill="white"/>
<path d="M18 47.4798C18 47.2148 18.2148 47 18.4798 47H22.9012C23.1662 47 23.381 47.2148 23.381 47.4798V47.4798C23.381 47.7447 23.1662 47.9595 22.9012 47.9595H18.4798C18.2148 47.9595 18 47.7447 18 47.4798V47.4798Z" fill="white"/>
<path d="M11 47.4798C11 47.2148 11.2148 47 11.4798 47H15.9012C16.1662 47 16.381 47.2148 16.381 47.4798V47.4798C16.381 47.7447 16.1662 47.9595 15.9012 47.9595H11.4798C11.2148 47.9595 11 47.7447 11 47.4798V47.4798Z" fill="white"/>
<path d="M25 47.4798C25 47.2148 25.2148 47 25.4798 47H29.9012C30.1662 47 30.381 47.2148 30.381 47.4798V47.4798C30.381 47.7447 30.1662 47.9595 29.9012 47.9595H25.4798C25.2148 47.9595 25 47.7447 25 47.4798V47.4798Z" fill="white"/>
<path d="M32 47.4798C32 47.2148 32.2148 47 32.4798 47H36.9012C37.1662 47 37.381 47.2148 37.381 47.4798V47.4798C37.381 47.7447 37.1662 47.9595 36.9012 47.9595H32.4798C32.2148 47.9595 32 47.7447 32 47.4798V47.4798Z" fill="white"/>
<path d="M4 51.4798C4 51.2148 4.2148 51 4.47976 51H36.9012C37.1662 51 37.381 51.2148 37.381 51.4798V51.4798C37.381 51.7447 37.1662 51.9595 36.9012 51.9595H4.47976C4.2148 51.9595 4 51.7447 4 51.4798V51.4798Z" fill="white"/>
<path d="M4 43.4798C4 43.2148 4.2148 43 4.47976 43H24.9012C25.1662 43 25.381 43.2148 25.381 43.4798V43.4798C25.381 43.7447 25.1662 43.9595 24.9012 43.9595H4.47976C4.2148 43.9595 4 43.7447 4 43.4798V43.4798Z" fill="white"/>
<path fill-rule="evenodd" clip-rule="evenodd" d="M37 29.8H5C4.88954 29.8 4.8 29.8895 4.8 30V39C4.8 39.1105 4.88954 39.2 5 39.2H37C37.1105 39.2 37.2 39.1105 37.2 39V30C37.2 29.8895 37.1105 29.8 37 29.8ZM5 29C4.44772 29 4 29.4477 4 30V39C4 39.5523 4.44771 40 5 40H37C37.5523 40 38 39.5523 38 39V30C38 29.4477 37.5523 29 37 29H5Z" fill="white"/>
<path d="M20 8.57143C20.2825 8.57143 20.5587 8.65521 20.7937 8.81219C21.0286 8.96916 21.2117 9.19227 21.3198 9.45331C21.428 9.71435 21.4562 10.0016 21.4011 10.2787C21.346 10.5558 21.2099 10.8104 21.0102 11.0102C20.8104 11.2099 20.5558 11.346 20.2787 11.4011C20.0016 11.4562 19.7143 11.428 19.4533 11.3198C19.1923 11.2117 18.9692 11.0286 18.8122 10.7937C18.6552 10.5587 18.5714 10.2825 18.5714 10C18.5714 9.62112 18.7219 9.25776 18.9898 8.98985C19.2578 8.72194 19.6211 8.57143 20 8.57143V8.57143ZM20 8C19.6044 8 19.2178 8.1173 18.8889 8.33706C18.56 8.55682 18.3036 8.86918 18.1522 9.23463C18.0009 9.60009 17.9613 10.0022 18.0384 10.3902C18.1156 10.7781 18.3061 11.1345 18.5858 11.4142C18.8655 11.6939 19.2219 11.8844 19.6098 11.9616C19.9978 12.0387 20.3999 11.9991 20.7654 11.8478C21.1308 11.6964 21.4432 11.44 21.6629 11.1111C21.8827 10.7822 22 10.3956 22 10C22 9.46957 21.7893 8.96086 21.4142 8.58579C21.0391 8.21071 20.5304 8 20 8V8Z" fill="white"/>
<path d="M23 15.7C23 15.8657 22.8657 16 22.7 16V16C22.5343 16 22.4 15.8657 22.4 15.7V14.75C22.4 14.4185 22.242 14.1005 21.9607 13.8661C21.6794 13.6317 21.2978 13.5 20.9 13.5H19.1C18.7022 13.5 18.3206 13.6317 18.0393 13.8661C17.758 14.1005 17.6 14.4185 17.6 14.75V15.7C17.6 15.8657 17.4657 16 17.3 16V16C17.1343 16 17 15.8657 17 15.7V14.75C17 14.2859 17.2212 13.8408 17.6151 13.5126C18.0089 13.1844 18.543 13 19.1 13H20.9C21.457 13 21.9911 13.1844 22.3849 13.5126C22.7788 13.8408 23 14.2859 23 14.75V15.7Z" fill="white"/>
<path fill-rule="evenodd" clip-rule="evenodd" d="M23 6.6H17C16.2268 6.6 15.6 7.2268 15.6 8V14C15.6 14.7732 16.2268 15.4 17 15.4H23C23.7732 15.4 24.4 14.7732 24.4 14V8C24.4 7.2268 23.7732 6.6 23 6.6ZM17 6C15.8954 6 15 6.89543 15 8V14C15 15.1046 15.8954 16 17 16H23C24.1046 16 25 15.1046 25 14V8C25 6.89543 24.1046 6 23 6H17Z" fill="white"/>
</svg>
